<svg xmlns="http://www.w3.org/2000/svg" viewBox="0 0 512 512">
  <defs>
    <linearGradient id="grad" x1="0%" y1="0%" x2="100%" y2="100%">
      <stop offset="0%" style="stop-color:#7c3aed;stop-opacity:1" />
      <stop offset="100%" style="stop-color:#06b6d4;stop-opacity:1" />
    </linearGradient>
  </defs>
  <rect width="512" height="512" rx="96" fill="url(#grad)"/>
  <g transform="translate(256, 256)">
    <!-- Film reel / telescope hybrid icon -->
    <circle cx="0" cy="0" r="120" fill="none" stroke="white" stroke-width="20" opacity="0.9"/>
    <circle cx="0" cy="0" r="40" fill="white" opacity="0.9"/>
    <circle cx="0" cy="-90" r="18" fill="white" opacity="0.7"/>
    <circle cx="78" cy="45" r="18" fill="white" opacity="0.7"/>
    <circle cx="-78" cy="45" r="18" fill="white" opacity="0.7"/>
    <circle cx="78" cy="-45" r="18" fill="white" opacity="0.7"/>
    <circle cx="-78" cy="-45" r="18" fill="white" opacity="0.7"/>
    <circle cx="0" cy="90" r="18" fill="white" opacity="0.7"/>
    <!-- Star sparkle -->
    <path d="M140,-100 L148,-80 L168,-88 L156,-68 L176,-60 L156,-52 L168,-32 L148,-40 L140,-20 L132,-40 L112,-32 L124,-52 L104,-60 L124,-68 L112,-88 L132,-80 Z" fill="white" opacity="0.8"/>
  </g>
</svg>